:SAMPLES-PER-SECOND 30
:FULLY-SPECIFIED
:DEGREES
78
root  -2.83191 40.799 -1.12585 -0.492619 -83.3121 -1.95127
RightUpLeg  4.8536 -2.29059 0.52853
RightLeg  0.779146 -23.4356 1.41519
RightFoot  -2.86362 -0.137116 1.58361
RightToes  -3.13006e-008 1.75238e-005 3.56266e-009
Spine  -2.56049 0.381795 3.08011
Spine1  4.87424 2.62051 -9.9834
HEad  -1.8936 -5.66024 4.89361
LeftShoulder1  1.01617 -3.37887 -7.15431
LeftArm  -75.6141 -57.2947 -16.9979
LeftForeArm  108.916 -80.0973 -101.033
LeftHand  -0.808253 0.883725 20.7829
RightShoulder  0.771579 2.07311 6.1391
RightArm  -77.3569 37.8729 9.62151
RightForeArm  127.144 71.6982 144.421
RightHand  -1.58778 9.13384 -13.001
LeftUpLeg  1.82586 1.82296 4.31647
LeftLeg  3.90712 4.96229 0.748705
LeftFoot  -2.74875 0.360543 -4.59263
LeftToes  4.78685e-008 1.46778e-008 1.34523e-009
79
root  -2.80036 40.8346 -0.858907 -0.247508 -84.3011 -1.62408
RightUpLeg  4.29589 -2.08452 0.185388
RightLeg  0.400837 -22.6747 1.2587
RightFoot  -2.35797 -0.175974 2.03656
RightToes  -3.13006e-008 1.75238e-005 3.56266e-009
Spine  -1.66377 0.0242988 3.13253
Spine1  2.85445 1.79114 -8.72006
HEad  -2.5295 -4.80174 5.43892
LeftShoulder1  0.933988 -3.14186 -6.34257
LeftArm  -78.9068 -57.9764 -13.7693
LeftForeArm  106.359 -80.3597 -95.5848
LeftHand  -0.81349 0.997988 21.4058
RightShoulder  0.660732 1.51926 5.37212
RightArm  -79.4415 37.2006 8.60915
RightForeArm  126.634 71.8719 143.988
RightHand  -1.7474 9.28353 -14.1049
LeftUpLeg  1.71322 1.6881 3.8759
LeftLeg  3.22068 6.18448 0.517474
LeftFoot  -2.49019 0.332448 -4.14579
LeftToes  4.78685e-008 1.46778e-008 1.34523e-009
80
root  -2.74966 40.8616 -0.574084 0.700351 -85.2841 -2.20242
RightUpLeg  3.78872 -2.00511 -0.167351
RightLeg  0.314181 -21.7849 1.11277
RightFoot  -1.91645 -0.200848 2.2762
RightToes  -3.13006e-008 1.75238e-005 3.56266e-009
Spine  -0.599216 -0.43504 3.3185
Spine1  1.08585 0.897027 -7.31269
HEad  -2.96839 -4.69081 5.43456
LeftShoulder1  0.800407 -2.54327 -5.43305
LeftArm  -81.5902 -58.1266 -10.9929
LeftForeArm  102.422 -80.5325 -88.9201
LeftHand  -0.943128 0.475391 22.2356
RightShoulder  0.568102 0.932337 4.98224
RightArm  -81.4643 37.0768 7.84399
RightForeArm  126.416 72.0874 143.501
RightHand  -2.13781 10.1833 -16.1723
LeftUpLeg  1.59856 1.67986 3.53896
LeftLeg  2.90165 7.24391 0.259306
LeftFoot  -2.38872 0.298 -3.61984
LeftToes  4.78685e-008 1.46778e-008 1.34523e-009
81
root  -2.73311 40.8907 -0.268814 0.483802 -86.2509 -1.75523
RightUpLeg  3.68924 -1.84309 -0.559736
RightLeg  -0.23531 -20.9717 0.961504
RightFoot  -1.39098 -0.241438 2.66258
RightToes  -3.13006e-008 1.75238e-005 3.56266e-009
Spine  -0.777496 -0.726489 3.29897
Spine1  0.969404 0.244806 -5.65122
HEad  -3.48938 -4.27908 5.72978
LeftShoulder1  0.729204 -2.30332 -4.66288
LeftArm  -83.208 -58.2099 -9.44025
LeftForeArm  103.135 -80.6151 -87.6222
LeftHand  -1.02923 -0.0857521 21.7808
RightShoulder  0.528298 0.660406 4.84655
RightArm  -83.2973 36.6433 7.15458
RightForeArm  126.363 72.3473 142.933
RightHand  -2.52991 11.2499 -17.8852
LeftUpLeg  1.79629 1.54473 3.03669
LeftLeg  2.28742 8.37579 0.0296007
LeftFoot  -2.26248 0.273106 -3.26738
LeftToes  4.78685e-008 1.46778e-008 1.34523e-009
82
root  -2.68282 40.9047 0.0338062 -1.14923 -87.1773 0.0333909
RightUpLeg  3.40062 -1.87771 -1.08543
RightLeg  -0.30554 -19.9892 0.711802
RightFoot  -1.03883 -0.291047 3.14909
RightToes  -3.13006e-008 1.75238e-005 3.56266e-009
Spine  -0.69177 -0.989666 3.01583
Spine1  0.974374 -0.409654 -3.57941
HEad  -4.046 -3.29844 5.82227
LeftShoulder1  0.687606 -2.15004 -4.21716
LeftArm  -83.8901 -57.9016 -8.51252
LeftForeArm  102.169 -80.6351 -85.8736
LeftHand  -0.941814 0.428705 21.9701
RightShoulder  0.493318 0.331257 5.05184
RightArm  -84.8332 36.7764 7.17667
RightForeArm  125.982 72.211 143.169
RightHand  -2.47095 10.9031 -17.8226
LeftUpLeg  1.86626 1.3406 2.46938
LeftLeg  1.9895 9.53694 -0.176817
LeftFoot  -2.23873 0.242424 -2.87568
LeftToes  4.78685e-008 1.46778e-008 1.34523e-009
83
root  -2.64956 40.903 0.322878 -1.6318 -87.8124 0.294428
RightUpLeg  3.50216 -2.03039 -1.52596
RightLeg  -0.237937 -19.1821 0.522435
RightFoot  -0.855018 -0.331373 3.54545
RightToes  -3.13006e-008 1.75238e-005 3.56266e-009
Spine  -0.481787 -1.26604 2.57485
Spine1  1.2663 -1.13103 -1.18175
HEad  -3.77896 -3.02392 5.94516
LeftShoulder1  0.690147 -2.05487 -4.50168
LeftArm  -82.6785 -57.6077 -8.9827
LeftForeArm  104.016 -80.6678 -87.2472
LeftHand  -0.993349 0.183526 22.0756
RightShoulder  0.471008 0.0446628 5.49723
RightArm  -85.4297 37.0197 7.93492
RightForeArm  125.523 71.8491 143.868
RightHand  -2.38939 10.6587 -17.5131
LeftUpLeg  2.12052 1.28871 2.05871
LeftLeg  2.07431 10.2369 -0.323431
LeftFoot  -2.41445 0.189025 -2.23489
LeftToes  4.78685e-008 1.46778e-008 1.34523e-009
84
root  -2.6255 40.8979 0.591508 0.459133 -88.7098 -2.21368
RightUpLeg  3.86618 -2.03054 -1.82365
RightLeg  -0.343925 -18.378 0.313254
RightFoot  -0.657921 -0.374538 3.95453
RightToes  -3.13006e-008 1.75238e-005 3.56266e-009
Spine  -1.17752 -1.23291 2.22994
Spine1  3.2132 -1.56129 1.05157
HEad  -3.9622 -2.7507 6.56696
LeftShoulder1  0.710533 -2.03058 -4.97714
LeftArm  -80.4997 -57.2065 -10.5615
LeftForeArm  109.467 -80.6432 -93.2425
LeftHand  -0.907993 0.42179 21.1749
RightShoulder  0.554033 0.403527 6.5598
RightArm  -85.814 36.5449 8.16283
RightForeArm  125.547 71.4936 144.601
RightHand  -2.37966 10.5535 -17.5288
LeftUpLeg  2.57654 1.39483 1.76383
LeftLeg  2.26812 11.0667 -0.477798
LeftFoot  -2.66042 0.144789 -1.69755
LeftToes  4.78685e-008 1.46778e-008 1.34523e-009
